<?xml version="1.0" encoding="utf-8"?>
<!-- Generator: Adobe Illustrator 16.0.0, SVG Export Plug-In . SVG Version: 6.00 Build 0)  -->
<!DOCTYPE svg PUBLIC "-//W3C//DTD SVG 1.1//EN" "http://www.w3.org/Graphics/SVG/1.1/DTD/svg11.dtd">
<svg version="1.1" id="Layer_1" xmlns="http://www.w3.org/2000/svg" xmlns:xlink="http://www.w3.org/1999/xlink" x="0px" y="0px"
	 width="300px" height="300px" viewBox="0 0 300 300" enable-background="new 0 0 300 300" xml:space="preserve">
<path fill="#FFFFFF" d="M124.92,149.999l70.416-70.417c1.803-1.804,3.006-4.51,3.006-6.914c0.002-2.642-1.15-4.992-2.883-6.78
	c-1.803-1.739-4.439-2.896-6.793-2.896c-2.404,0-5.109,1.202-6.914,3.006l-77.087,77.089c-1.804,1.803-3.006,4.51-3.007,6.913
	c0,2.404,1.202,5.107,3.007,6.913l77.087,77.089c1.805,1.805,4.51,3.006,6.914,3.006c2.348,0,4.975-1.146,6.775-2.881
	c1.742-1.803,2.898-4.439,2.898-6.797c0-2.404-1.199-5.107-3.006-6.912L124.92,149.999z"/>
</svg>
