<?xml version="1.0" encoding="utf-8"?>
<!-- Generator: Adobe Illustrator 16.0.0, SVG Export Plug-In . SVG Version: 6.00 Build 0)  -->
<!DOCTYPE svg PUBLIC "-//W3C//DTD SVG 1.1//EN" "http://www.w3.org/Graphics/SVG/1.1/DTD/svg11.dtd">
<svg version="1.1" id="Layer_1" xmlns="http://www.w3.org/2000/svg" xmlns:xlink="http://www.w3.org/1999/xlink" x="0px" y="0px"
	 width="300px" height="300px" viewBox="0 0 300 300" enable-background="new 0 0 300 300" xml:space="preserve">
<g>
	<path fill="#FFFFFF" d="M156.914,141.67c-1.805-1.804-4.51-3.006-6.914-3.007c-2.404,0-5.108,1.201-6.913,3.007l-77.089,77.087
		c-1.804,1.805-3.006,4.51-3.006,6.914c0,2.348,1.147,4.975,2.881,6.774c1.803,1.742,4.44,2.899,6.797,2.899
		c2.404,0,5.108-1.2,6.912-3.006l70.419-70.416l70.417,70.416c1.806,1.804,4.511,3.007,6.914,3.007
		c2.644,0.002,4.992-1.15,6.779-2.884c1.74-1.803,2.896-4.438,2.896-6.793c0-2.403-1.201-5.108-3.006-6.914L156.914,141.67z"/>
	<path fill="#FFFFFF" d="M72.67,161.336c2.404,0,5.108-1.199,6.912-3.006l70.419-70.415l70.417,70.417
		c1.806,1.803,4.511,3.006,6.914,3.006c2.644,0.002,4.992-1.15,6.779-2.883c1.74-1.804,2.896-4.439,2.896-6.793
		c0-2.405-1.201-5.11-3.006-6.915l-77.088-77.087c-1.805-1.804-4.51-3.006-6.914-3.007c-2.404,0-5.108,1.201-6.913,3.007
		l-77.089,77.087c-1.804,1.805-3.006,4.51-3.006,6.915c0,2.348,1.147,4.975,2.881,6.774C67.676,160.18,70.313,161.336,72.67,161.336
		z"/>
</g>
</svg>
