<?xml version="1.0" encoding="utf-8"?>
<!-- Generator: Adobe Illustrator 16.0.0, SVG Export Plug-In . SVG Version: 6.00 Build 0)  -->
<!DOCTYPE svg PUBLIC "-//W3C//DTD SVG 1.1//EN" "http://www.w3.org/Graphics/SVG/1.1/DTD/svg11.dtd">
<svg version="1.1" id="Layer_1" xmlns="http://www.w3.org/2000/svg" xmlns:xlink="http://www.w3.org/1999/xlink" x="0px" y="0px"
	 width="300px" height="300px" viewBox="0 0 300 300" enable-background="new 0 0 300 300" xml:space="preserve">
<path fill="#FFFFFF" d="M206.117,84.207c-2.404,0-5.109,1.201-6.914,3.006l-49.204,49.204l-49.205-49.204
	c-1.803-1.803-4.509-3.007-6.913-3.007c-2.642,0-4.99,1.15-6.778,2.884c-1.742,1.801-2.898,4.438-2.896,6.793
	c0,2.404,1.2,5.111,3.005,6.916l49.203,49.202L87.21,199.204c-1.804,1.802-3.005,4.509-3.005,6.914
	c-0.001,2.354,1.157,4.998,2.901,6.797c1.787,1.729,4.136,2.879,6.774,2.879c2.404,0.002,5.11-1.203,6.913-3.006l49.203-49.203
	l49.204,49.204c1.803,1.803,4.51,3.005,6.913,3.005c2.357,0,4.996-1.158,6.8-2.901c1.729-1.787,2.879-4.136,2.879-6.774
	c0-2.404-1.205-5.109-3.008-6.911L163.582,150l49.203-49.203c1.807-1.803,3.01-4.509,3.01-6.913c0-2.643-1.15-4.992-2.885-6.78
	C211.111,85.363,208.473,84.207,206.117,84.207z"/>
</svg>
