<?xml version="1.0" encoding="utf-8"?>
<!-- Generator: Adobe Illustrator 16.0.0, SVG Export Plug-In . SVG Version: 6.00 Build 0)  -->
<!DOCTYPE svg PUBLIC "-//W3C//DTD SVG 1.1//EN" "http://www.w3.org/Graphics/SVG/1.1/DTD/svg11.dtd">
<svg version="1.1" id="Layer_1" xmlns="http://www.w3.org/2000/svg" xmlns:xlink="http://www.w3.org/1999/xlink" x="0px" y="0px"
	 width="50px" height="50px" viewBox="0 0 50 50" enable-background="new 0 0 50 50" xml:space="preserve">
<circle cx="25" cy="25" r="24.945"/>
<path fill="#FFFFFF" d="M35.656,17.26c1.2-0.709,2.098-1.854,2.533-3.188c-1.117,0.652-2.343,1.144-3.65,1.389
	c-1.037-1.116-2.535-1.799-4.17-1.799c-3.161,0-5.724,2.563-5.724,5.725c0,0.436,0.026,0.898,0.137,1.308
	c-4.77-0.245-8.994-2.507-11.829-5.995c-0.49,0.844-0.79,1.853-0.79,2.889c0,1.989,0.926,3.733,2.48,4.769
	c-0.954-0.026-1.854-0.3-2.726-0.708c0,0,0,0.027,0,0.055c0,2.78,2.099,5.097,4.715,5.614c-0.491,0.138-0.872,0.218-1.39,0.218
	c-0.354,0-0.709-0.054-1.063-0.107c0.736,2.262,2.834,3.924,5.342,3.979c-1.962,1.526-4.415,2.452-7.113,2.452
	c-0.463,0-0.926-0.026-1.362-0.082c2.533,1.607,5.531,2.563,8.774,2.563c10.521,0,16.299-8.723,16.299-16.299
	c0-0.245,0-0.49-0.026-0.736c1.117-0.791,2.098-1.799,2.861-2.971C37.918,16.796,36.827,17.097,35.656,17.26z"/>
</svg>
