<?xml version="1.0" encoding="utf-8"?>
<!-- Generator: Adobe Illustrator 16.0.0, SVG Export Plug-In . SVG Version: 6.00 Build 0)  -->
<!DOCTYPE svg PUBLIC "-//W3C//DTD SVG 1.1//EN" "http://www.w3.org/Graphics/SVG/1.1/DTD/svg11.dtd">
<svg version="1.1" id="Layer_1" xmlns="http://www.w3.org/2000/svg" xmlns:xlink="http://www.w3.org/1999/xlink" x="0px" y="0px"
	 width="50px" height="50px" viewBox="0 0 50 50" enable-background="new 0 0 50 50" xml:space="preserve">
<circle cx="25" cy="25" r="24.945"/>
<g>
	<path fill="#FFFFFF" d="M38.376,19.443c-0.106-2.156-0.597-4.066-2.174-5.645c-1.578-1.579-3.489-2.069-5.645-2.174
		C28.7,11.52,26.858,11.536,25,11.536c-1.858,0-3.699-0.017-5.557,0.089c-2.158,0.106-4.069,0.595-5.646,2.173
		c-1.578,1.578-2.067,3.488-2.174,5.645c-0.104,1.859-0.086,3.699-0.086,5.558s-0.018,3.7,0.087,5.558
		c0.105,2.157,0.597,4.066,2.173,5.645c1.58,1.576,3.488,2.068,5.646,2.175c1.858,0.104,3.699,0.086,5.557,0.086
		c1.858,0,3.7,0.019,5.557-0.086c2.155-0.106,4.066-0.599,5.645-2.175c1.577-1.578,2.067-3.487,2.174-5.645
		c0.105-1.857,0.087-3.7,0.087-5.559C38.463,23.143,38.481,21.302,38.376,19.443z M35.501,32.943
		c-0.246,0.612-0.544,1.068-1.017,1.542c-0.474,0.472-0.929,0.772-1.543,1.018c-1.771,0.7-5.977,0.541-7.941,0.541
		c-1.963,0-6.17,0.159-7.941-0.541c-0.613-0.245-1.069-0.546-1.542-1.018c-0.474-0.474-0.771-0.93-1.018-1.542
		c-0.702-1.771-0.543-5.979-0.543-7.942c0-1.963-0.159-6.172,0.543-7.942c0.247-0.612,0.543-1.067,1.018-1.541
		c0.473-0.474,0.929-0.772,1.542-1.017c1.771-0.702,5.978-0.545,7.941-0.545c1.964,0,6.17-0.157,7.941,0.545
		c0.614,0.245,1.069,0.543,1.543,1.017c0.473,0.474,0.771,0.929,1.017,1.541c0.701,1.771,0.544,5.979,0.544,7.942
		C36.045,26.965,36.202,31.172,35.501,32.943z"/>
	<path fill="#FFFFFF" d="M32.188,19.426c-0.895,0-1.613-0.719-1.613-1.612c0-0.895,0.719-1.614,1.613-1.614
		c0.894,0,1.611,0.719,1.611,1.614C33.8,18.707,33.082,19.426,32.188,19.426z"/>
	<path fill="#FFFFFF" d="M25,18.093c-3.822,0-6.908,3.085-6.908,6.908s3.085,6.908,6.908,6.908c3.822,0,6.906-3.086,6.906-6.908
		S28.822,18.093,25,18.093z M25,29.49c-2.471,0-4.488-2.017-4.488-4.489c0-2.473,2.017-4.488,4.488-4.488
		c2.471,0,4.488,2.015,4.488,4.488C29.488,27.474,27.472,29.49,25,29.49z"/>
</g>
</svg>
