<?xml version="1.0" encoding="utf-8"?>
<!-- Generator: Adobe Illustrator 16.0.0, SVG Export Plug-In . SVG Version: 6.00 Build 0)  -->
<!DOCTYPE svg PUBLIC "-//W3C//DTD SVG 1.1//EN" "http://www.w3.org/Graphics/SVG/1.1/DTD/svg11.dtd">
<svg version="1.1" id="Layer_1" xmlns="http://www.w3.org/2000/svg" xmlns:xlink="http://www.w3.org/1999/xlink" x="0px" y="0px"
	 width="50px" height="50px" viewBox="0 0 50 50" enable-background="new 0 0 50 50" xml:space="preserve">
<circle cx="25" cy="25" r="24.945"/>
<g>
	<path fill="#FFFFFF" d="M15.564,13.084c-1.831,0-3.037,1.206-3.037,2.783c0,1.53,1.159,2.782,2.968,2.782h0.022
		c1.879,0,3.037-1.252,3.037-2.782C18.532,14.29,17.396,13.084,15.564,13.084z"/>
	<rect x="12.853" y="20.827" fill="#FFFFFF" width="5.355" height="16.089"/>
	<path fill="#FFFFFF" d="M37.473,36.916v-9.227c0-4.938-2.644-7.232-6.167-7.232c-2.874,0-4.149,1.599-4.845,2.711h0.047v-2.342
		h-5.356c0,0,0.07,1.507,0,16.089h5.356v-8.995c0-0.463,0.022-0.95,0.161-1.297c0.396-0.95,1.276-1.948,2.761-1.948
		c1.924,0,2.688,1.462,2.688,3.641v8.6H37.473L37.473,36.916z"/>
</g>
</svg>
