<?xml version="1.0" encoding="utf-8"?>
<!-- Generator: Adobe Illustrator 16.0.0, SVG Export Plug-In . SVG Version: 6.00 Build 0)  -->
<!DOCTYPE svg PUBLIC "-//W3C//DTD SVG 1.1//EN" "http://www.w3.org/Graphics/SVG/1.1/DTD/svg11.dtd">
<svg version="1.1" id="Layer_1" xmlns="http://www.w3.org/2000/svg" xmlns:xlink="http://www.w3.org/1999/xlink" x="0px" y="0px"
	 width="30px" height="30px" viewBox="0 0 30 30" enable-background="new 0 0 30 30" xml:space="preserve">
<path fill="#FFFFFF" d="M14.795,22.244H8.967l5.556-5.561l-1.247-1.243l-5.545,5.545l0.029-5.785c0-0.484-0.395-0.875-0.88-0.875
	c-0.484,0-0.879,0.391-0.88,0.875v7.92c0.001,0.258,0.108,0.467,0.279,0.615C6.438,23.9,6.662,24,6.907,24h7.888
	c0.487,0,0.882-0.391,0.882-0.875C15.678,22.641,15.282,22.244,14.795,22.244L14.795,22.244z M23.098,6h-7.893
	c-0.487,0-0.876,0.395-0.878,0.881c0.001,0.485,0.391,0.88,0.878,0.88h5.831l-5.553,5.554l1.242,1.247l5.543-5.547l-0.025,5.783
	c0,0.485,0.396,0.879,0.883,0.879c0.482,0,0.875-0.395,0.875-0.881l-0.002-7.915c0.003-0.262-0.105-0.473-0.271-0.615
	C23.566,6.103,23.343,6,23.098,6L23.098,6z"/>
<g>
	<path fill="#FFFFFF" d="M25,1.8c1.766,0,3.2,1.436,3.2,3.2v20c0,1.766-1.437,3.2-3.2,3.2H5c-1.765,0-3.2-1.437-3.2-3.2V5
		c0-1.765,1.436-3.2,3.2-3.2H25 M25,0H5C2.239,0,0,2.239,0,5v20c0,2.762,2.239,5,5,5h20c2.762,0,5-2.238,5-5V5
		C30,2.239,27.762,0,25,0L25,0z"/>
</g>
</svg>
