<?xml version="1.0" encoding="utf-8"?>
<!-- Generator: Adobe Illustrator 16.0.0, SVG Export Plug-In . SVG Version: 6.00 Build 0)  -->
<!DOCTYPE svg PUBLIC "-//W3C//DTD SVG 1.1//EN" "http://www.w3.org/Graphics/SVG/1.1/DTD/svg11.dtd">
<svg version="1.1" id="Layer_1" xmlns="http://www.w3.org/2000/svg" xmlns:xlink="http://www.w3.org/1999/xlink" x="0px" y="0px"
	 width="350px" height="140px" viewBox="0 0 350 140" style="enable-background:new 0 0 350 140;" xml:space="preserve">
<style type="text/css">
<![CDATA[
	.st0{fill:#FFFFFF;}
]]>
</style>
<circle class="st0" cx="67.5" cy="70" r="37.5"/>
<g>
	<path d="M59.7,56.9l7.2-4.1l3,5.3l-7.2,4.1l12.7,22.5c1.6,2.7,2.6,2.8,6.3,0.7l2.7-1.5l3,5.3l-4.6,2.6c-6.2,3.5-9.3,3.6-13.1-3
		l-13.1-23L50.5,69l-3-5.3l6.2-3.5l-6.1-10.9l6-3.4L59.7,56.9z"/>
</g>
<g>
	<path class="st0" d="M148.6,59.7v2.9H143v18.8c0,1.1,0.2,2,0.5,2.6s1.1,1,2.3,1.1c1,0,1.9-0.1,2.9-0.2v2.9c-0.5,0-1,0-1.5,0.1
		c-0.5,0-1,0.1-1.5,0.1c-2.3,0-3.9-0.4-4.8-1.3c-0.9-0.9-1.3-2.5-1.3-4.9V62.6h-4.9v-2.9h4.9v-8.4h3.4v8.4H148.6z"/>
	<path class="st0" d="M165.1,78.4c0.3,1.3,0.9,2.5,1.6,3.5c0.8,1,1.7,1.9,2.9,2.6c1.2,0.7,2.5,1,4.2,1c2.5,0,4.4-0.6,5.8-1.9
		c1.4-1.3,2.4-3,2.9-5.2h3.4c-0.7,3.2-2,5.6-4,7.3c-1.9,1.7-4.7,2.6-8.2,2.6c-2.2,0-4.1-0.4-5.7-1.2c-1.6-0.8-2.9-1.8-3.9-3.2
		c-1-1.4-1.8-2.9-2.2-4.7c-0.5-1.8-0.7-3.7-0.7-5.6c0-1.8,0.2-3.6,0.7-5.4c0.5-1.8,1.2-3.3,2.2-4.7s2.3-2.5,3.9-3.3
		c1.6-0.8,3.5-1.3,5.7-1.3c2.2,0,4.1,0.5,5.7,1.3c1.6,0.9,2.9,2.1,3.9,3.5c1,1.5,1.7,3.1,2.1,5c0.4,1.9,0.6,3.8,0.5,5.8h-21.4
		C164.6,75.8,164.8,77.1,165.1,78.4z M182,68c-0.4-1.2-1-2.2-1.8-3.2c-0.8-0.9-1.7-1.7-2.8-2.2c-1.1-0.6-2.3-0.8-3.7-0.8
		c-1.4,0-2.6,0.3-3.7,0.8c-1.1,0.6-2,1.3-2.8,2.2c-0.8,0.9-1.4,2-1.8,3.2c-0.5,1.2-0.7,2.4-0.9,3.7h18C182.6,70.4,182.4,69.2,182,68
		z"/>
	<path class="st0" d="M202.9,59.7v6.5h0.1c0.9-2.3,2.2-4,4-5.2s4-1.8,6.5-1.7v3.4c-1.5-0.1-3,0.1-4.2,0.6c-1.3,0.5-2.4,1.2-3.3,2.1
		s-1.6,2-2.1,3.2c-0.5,1.2-0.8,2.6-0.8,4.1v14.9h-3.4V59.7H202.9z"/>
	<path class="st0" d="M241.9,65.1c-0.4-0.8-0.9-1.4-1.6-1.9s-1.4-0.9-2.3-1.1c-0.9-0.2-1.8-0.4-2.8-0.4c-0.8,0-1.5,0.1-2.3,0.2
		c-0.8,0.1-1.5,0.4-2.1,0.8c-0.6,0.4-1.2,0.9-1.6,1.5c-0.4,0.6-0.6,1.4-0.6,2.3c0,0.8,0.2,1.4,0.6,1.9c0.4,0.5,0.9,1,1.4,1.3
		c0.5,0.3,1.2,0.7,1.9,0.9c0.7,0.2,1.3,0.4,1.9,0.6l4.5,1c1,0.1,1.9,0.4,2.9,0.8s1.8,0.9,2.5,1.5s1.3,1.4,1.8,2.3
		c0.5,0.9,0.7,2,0.7,3.2c0,1.5-0.3,2.8-1,3.9c-0.7,1.1-1.6,1.9-2.6,2.6c-1.1,0.7-2.3,1.1-3.6,1.4c-1.3,0.3-2.6,0.4-3.9,0.4
		c-3.3,0-5.9-0.8-8-2.3c-2-1.5-3.2-4-3.5-7.5h3.4c0.1,2.3,1,4,2.5,5.2s3.4,1.8,5.7,1.8c0.8,0,1.7-0.1,2.6-0.3
		c0.9-0.2,1.7-0.5,2.5-0.9c0.8-0.4,1.4-1,1.9-1.6c0.5-0.7,0.7-1.5,0.7-2.5c0-0.8-0.2-1.5-0.5-2.1c-0.3-0.6-0.8-1-1.4-1.4
		c-0.6-0.4-1.2-0.7-2-0.9c-0.7-0.3-1.5-0.5-2.2-0.6l-4.4-1c-1.1-0.3-2.1-0.6-3.1-1c-0.9-0.4-1.8-0.8-2.5-1.4
		c-0.7-0.6-1.3-1.2-1.6-2.1c-0.4-0.8-0.6-1.8-0.6-3c0-1.4,0.3-2.6,0.9-3.6c0.6-1,1.4-1.8,2.5-2.4c1-0.6,2.1-1.1,3.4-1.4
		c1.2-0.3,2.5-0.4,3.7-0.4c1.4,0,2.7,0.2,3.9,0.5c1.2,0.4,2.3,0.9,3.2,1.7c0.9,0.8,1.6,1.7,2.2,2.8c0.5,1.1,0.8,2.4,0.9,3.9h-3.4
		C242.5,66.8,242.3,65.9,241.9,65.1z"/>
	<path class="st0" d="M280.3,87.6v-5h-0.1c-0.9,1.9-2.2,3.3-3.9,4.3s-3.6,1.5-5.7,1.5c-1.8,0-3.3-0.2-4.5-0.7
		c-1.2-0.5-2.3-1.2-3-2.1c-0.8-0.9-1.3-2-1.7-3.3c-0.4-1.3-0.5-2.8-0.5-4.4V59.7h3.4v18.1c0.1,2.5,0.7,4.4,1.8,5.7
		c1.1,1.3,3,1.9,5.7,1.9c1.5,0,2.7-0.3,3.8-0.9c1-0.6,1.9-1.5,2.6-2.5s1.2-2.2,1.5-3.6c0.3-1.4,0.5-2.7,0.5-4.1V59.7h3.4v27.9H280.3
		z"/>
	<path class="st0" d="M315,65.1c-0.4-0.8-0.9-1.4-1.6-1.9c-0.7-0.5-1.4-0.9-2.3-1.1c-0.9-0.2-1.8-0.4-2.8-0.4
		c-0.8,0-1.5,0.1-2.3,0.2s-1.5,0.4-2.1,0.8c-0.6,0.4-1.2,0.9-1.6,1.5c-0.4,0.6-0.6,1.4-0.6,2.3c0,0.8,0.2,1.4,0.6,1.9
		c0.4,0.5,0.9,1,1.4,1.3c0.5,0.3,1.2,0.7,1.9,0.9c0.7,0.2,1.3,0.4,1.9,0.6l4.5,1c1,0.1,1.9,0.4,2.9,0.8s1.8,0.9,2.5,1.5
		c0.7,0.6,1.3,1.4,1.8,2.3c0.5,0.9,0.7,2,0.7,3.2c0,1.5-0.3,2.8-1,3.9c-0.7,1.1-1.6,1.9-2.6,2.6c-1.1,0.7-2.3,1.1-3.6,1.4
		c-1.3,0.3-2.6,0.4-3.9,0.4c-3.3,0-5.9-0.8-8-2.3c-2-1.5-3.2-4-3.5-7.5h3.4c0.1,2.3,1,4,2.5,5.2s3.4,1.8,5.7,1.8
		c0.8,0,1.7-0.1,2.6-0.3s1.7-0.5,2.5-0.9c0.8-0.4,1.4-1,1.9-1.6c0.5-0.7,0.7-1.5,0.7-2.5c0-0.8-0.2-1.5-0.5-2.1
		c-0.3-0.6-0.8-1-1.4-1.4c-0.6-0.4-1.2-0.7-2-0.9c-0.7-0.3-1.5-0.5-2.2-0.6l-4.4-1c-1.1-0.3-2.1-0.6-3.1-1c-0.9-0.4-1.8-0.8-2.5-1.4
		c-0.7-0.6-1.3-1.2-1.6-2.1c-0.4-0.8-0.6-1.8-0.6-3c0-1.4,0.3-2.6,0.9-3.6c0.6-1,1.4-1.8,2.5-2.4c1-0.6,2.1-1.1,3.4-1.4
		c1.2-0.3,2.5-0.4,3.7-0.4c1.4,0,2.7,0.2,3.9,0.5c1.2,0.4,2.3,0.9,3.2,1.7c0.9,0.8,1.6,1.7,2.2,2.8c0.5,1.1,0.8,2.4,0.9,3.9h-3.4
		C315.6,66.8,315.4,65.9,315,65.1z"/>
</g>
</svg>
