<?xml version="1.0" encoding="utf-8"?>
<!-- Generator: Adobe Illustrator 16.0.0, SVG Export Plug-In . SVG Version: 6.00 Build 0)  -->
<!DOCTYPE svg PUBLIC "-//W3C//DTD SVG 1.1//EN" "http://www.w3.org/Graphics/SVG/1.1/DTD/svg11.dtd">
<svg version="1.1" id="Layer_1" xmlns="http://www.w3.org/2000/svg" xmlns:xlink="http://www.w3.org/1999/xlink" x="0px" y="0px"
	 width="200px" height="200px" viewBox="0 0 200 200" enable-background="new 0 0 200 200" xml:space="preserve">
<g>
	<path fill="#FFFFFF" d="M78.415,180.526c-44.383-11.93-70.871-57.729-58.941-102.111S77.202,7.544,121.585,19.474
		c44.383,11.93,70.871,57.728,58.941,102.111C168.597,165.968,122.798,192.456,78.415,180.526L78.415,180.526z M97.22,94.187
		c0-23.152,0-46.405,0-69.557c-12.94,0.505-25.478,4.145-36.599,11.02c-6.471,3.943-11.828,8.492-16.782,14.053
		C61.228,64.463,79.426,79.527,97.22,94.187L97.22,94.187z M95.4,101.668L26.045,85.189c-5.661,28.207,5.258,57.02,27.803,74.41
		L95.4,101.668L95.4,101.668z M175.269,102.578c0-0.91,0.102-1.82,0.102-2.629c0-40.844-32.353-73.803-72.691-75.319v72.691
		c0,2.932-0.101,3.437-1.313,5.358l-42.968,60.054c2.729,1.82,5.561,3.438,8.492,4.853l0,0c0.102,0.102,0.304,0.102,0.404,0.202
		C115.013,190.737,173.348,158.385,175.269,102.578L175.269,102.578z"/>
	<path fill="#FFFFFF" d="M98.736,115.619l-2.527,3.641l0.303,1.213c0.202,0.707,0.91,1.112,1.618,0.91l2.628-0.708
		c0.708-0.202,1.112-0.91,0.91-1.618l-0.708-2.628c-0.202-0.708-0.909-1.112-1.617-0.91L98.736,115.619L98.736,115.619z
		 M91.861,79.932l-2.225,1.011l-3.438-2.831l5.662-2.628V79.932L91.861,79.932z M91.861,67.193L79.83,72.753l-3.438-2.831
		l15.469-7.178V67.193L91.861,67.193z M91.861,54.454l-21.736,10.11l-3.438-2.831l25.275-11.728v4.448H91.861z M91.861,41.716
		L60.318,56.477l-3.438-2.831l34.98-16.378V41.716L91.861,41.716z M87.109,31.201l-31.543,14.66
		C64.463,38.582,75.281,33.325,87.109,31.201L87.109,31.201z M109.756,169.203c1.517-0.202,3.033-0.506,4.55-0.81
		c0.303-0.303,0.404-0.809,0.303-1.213l-0.707-2.628c-0.202-0.708-0.91-1.112-1.618-0.91l-2.628,0.707
		c-0.708,0.203-1.112,0.91-0.91,1.618l0.707,2.629C109.452,168.899,109.554,169.102,109.756,169.203L109.756,169.203z
		 M166.979,120.068c0.304-1.112,0.708-2.325,0.91-3.438l-0.202-0.91c-0.202-0.708-0.91-1.112-1.618-0.909l-2.628,0.707
		c-0.708,0.202-1.112,0.91-0.91,1.617l0.708,2.629c0.202,0.708,0.909,1.112,1.617,0.91L166.979,120.068L166.979,120.068z
		 M150.499,51.522c-0.404-0.404-0.707-0.708-1.112-1.112c-0.202,0-0.404,0-0.606,0l-2.628,0.708c-0.708,0.202-1.112,0.91-0.91,1.618
		l0.707,2.628c0.203,0.708,0.91,1.112,1.618,0.91l2.629-0.708c0.707-0.202,1.112-0.91,0.909-1.618L150.499,51.522L150.499,51.522z
		 M111.272,30.898c-1.011-0.202-2.021-0.303-3.033-0.404v1.921l2.123-0.606C110.868,31.707,111.171,31.404,111.272,30.898
		L111.272,30.898z M140.794,140.188l0.707,2.628c0.202,0.708-0.202,1.416-0.909,1.618l-2.629,0.707
		c-0.708,0.202-1.416-0.202-1.617-0.909l-0.708-2.629c-0.202-0.708,0.202-1.415,0.909-1.618l2.629-0.707
		C139.884,139.075,140.592,139.479,140.794,140.188L140.794,140.188z M109.554,148.578l0.708,2.629
		c0.202,0.708-0.202,1.415-0.91,1.617l-2.629,0.708c-0.707,0.202-1.415-0.202-1.617-0.91l-0.708-2.628
		c-0.202-0.708,0.202-1.416,0.91-1.618l2.629-0.708C108.645,147.365,109.452,147.871,109.554,148.578L109.554,148.578z
		 M78.415,156.869l0.708,2.628c0.202,0.708-0.202,1.415-0.91,1.618l-2.629,0.707c-0.707,0.202-1.415-0.202-1.617-0.91l-0.708-2.628
		c-0.202-0.708,0.202-1.415,0.91-1.618l2.629-0.707C77.505,155.757,78.213,156.161,78.415,156.869L78.415,156.869z M136.446,124.112
		l0.708,2.628c0.202,0.708-0.202,1.416-0.91,1.618l-2.629,0.708c-0.707,0.202-1.415-0.203-1.617-0.91l-0.708-2.629
		c-0.202-0.707,0.202-1.415,0.91-1.617l2.629-0.708C135.536,123,136.244,123.404,136.446,124.112L136.446,124.112z M105.308,132.504
		l0.708,2.628c0.202,0.708-0.202,1.415-0.91,1.618l-2.629,0.707c-0.707,0.202-1.415-0.202-1.617-0.909l-0.708-2.629
		c-0.202-0.708,0.202-1.415,0.91-1.618l2.629-0.707C104.397,131.29,105.105,131.796,105.308,132.504L105.308,132.504z
		 M163.339,99.646l0.708,2.628c0.202,0.708-0.202,1.416-0.91,1.617l-2.629,0.708c-0.707,0.202-1.415-0.202-1.617-0.909l-0.708-2.629
		c-0.202-0.708,0.202-1.416,0.91-1.618l2.629-0.708C162.43,98.534,163.137,98.938,163.339,99.646L163.339,99.646z M132.2,108.037
		l0.708,2.629c0.202,0.708-0.203,1.415-0.91,1.617l-2.629,0.708c-0.707,0.202-1.415-0.202-1.617-0.91l-0.708-2.629
		c-0.202-0.707,0.202-1.415,0.91-1.617l2.628-0.708C131.189,106.925,131.998,107.329,132.2,108.037L132.2,108.037z M159.093,83.571
		l0.708,2.628c0.202,0.708-0.202,1.416-0.91,1.618l-2.629,0.708c-0.707,0.203-1.415-0.202-1.617-0.91l-0.708-2.629
		c-0.202-0.708,0.202-1.415,0.91-1.617l2.629-0.708C158.082,82.459,158.891,82.863,159.093,83.571L159.093,83.571z M127.853,91.962
		l0.708,2.629c0.202,0.708-0.202,1.415-0.91,1.617l-2.629,0.708c-0.707,0.202-1.415-0.202-1.617-0.91l-0.708-2.628
		c-0.201-0.708,0.202-1.416,0.91-1.618l2.629-0.708C126.943,90.749,127.65,91.255,127.853,91.962L127.853,91.962z M154.745,67.496
		l0.708,2.629c0.202,0.708-0.202,1.416-0.91,1.618l-2.628,0.708c-0.708,0.202-1.416-0.202-1.618-0.91l-0.707-2.629
		c-0.203-0.708,0.202-1.416,0.909-1.618l2.629-0.708C153.836,66.384,154.543,66.789,154.745,67.496L154.745,67.496z M123.506,75.888
		l0.708,2.628c0.201,0.708-0.203,1.416-0.911,1.618l-2.628,0.708c-0.708,0.202-1.415-0.202-1.617-0.91l-0.708-2.629
		c-0.202-0.708,0.202-1.415,0.91-1.617l2.628-0.708C122.596,74.674,123.404,75.18,123.506,75.888L123.506,75.888z M119.26,59.812
		l0.707,2.629c0.202,0.708-0.202,1.415-0.909,1.618l-2.629,0.708c-0.708,0.202-1.416-0.202-1.617-0.91l-0.708-2.628
		c-0.202-0.708,0.202-1.416,0.909-1.618l2.629-0.708C118.35,58.6,119.058,59.105,119.26,59.812L119.26,59.812z M114.912,43.738
		l0.708,2.628c0.202,0.708-0.202,1.416-0.91,1.618l-2.629,0.708c-0.707,0.202-1.415-0.202-1.617-0.91l-0.708-2.628
		c-0.202-0.708,0.202-1.416,0.91-1.618l2.628-0.708C114.002,42.524,114.71,42.929,114.912,43.738L114.912,43.738z"/>
</g>
</svg>
