<?xml version="1.0" encoding="utf-8"?>
<!-- Generator: Adobe Illustrator 16.0.0, SVG Export Plug-In . SVG Version: 6.00 Build 0)  -->
<!DOCTYPE svg PUBLIC "-//W3C//DTD SVG 1.1//EN" "http://www.w3.org/Graphics/SVG/1.1/DTD/svg11.dtd">
<svg version="1.1" id="Layer_1" xmlns="http://www.w3.org/2000/svg" xmlns:xlink="http://www.w3.org/1999/xlink" x="0px" y="0px"
	 width="200px" height="200px" viewBox="0 0 200 200" enable-background="new 0 0 200 200" xml:space="preserve">
<g>
	<path fill="#FFFFFF" d="M149.744,51.192c1.224,0.408,2.447,0.917,3.569,1.53c1.122,0.612,2.243,1.427,3.161,2.345l5.303-1.938
		l3.876,6.73l-4.283,3.569c0.611,2.651,0.611,5.303,0,7.852l4.283,3.569l-3.876,6.73l-5.2-1.938
		c-1.836,1.733-4.182,3.161-6.833,3.875l-1.02,5.507h-7.853l-1.02-5.507c-1.224-0.408-2.447-0.918-3.569-1.53l0,0l0,0
		c-1.121-0.612-2.243-1.428-3.161-2.345l-5.201,1.938l-3.875-6.73l4.283-3.569c-0.611-2.651-0.611-5.303,0-7.852l-4.283-3.569
		l3.875-6.73l5.303,1.938c1.836-1.733,4.182-3.161,6.833-3.875l1.02-5.507h7.853L149.744,51.192L149.744,51.192z M149.438,59.452
		c-2.04-1.224-4.589-1.53-7.036-0.918s-4.283,2.142-5.507,4.079c0,0.102-0.103,0.102-0.103,0.204
		c-1.224,2.04-1.529,4.589-0.918,7.036c0.612,2.448,2.244,4.385,4.283,5.609l0,0c2.04,1.224,4.589,1.53,7.037,0.917
		c2.447-0.612,4.385-2.243,5.608-4.283l0,0c1.224-2.04,1.529-4.589,0.918-7.037C153.109,62.613,151.479,60.676,149.438,59.452
		L149.438,59.452z"/>
	<path fill="#FFFFFF" d="M79.584,32.224H179.93c1.428,0,2.651,1.122,2.651,2.651v65.164c0,1.428-1.122,2.651-2.651,2.651H79.584
		c-1.428,0-2.651-1.122-2.651-2.651v-7.648l5.201,1.428v3.671h95.145V37.425H82.235v24.373l-0.204,0.204l-4.996-2.04V34.875
		C77.035,33.346,78.156,32.224,79.584,32.224L79.584,32.224z"/>
	<path fill="#FFFFFF" d="M55.211,25.392c-7.954,0-14.48,6.425-14.48,14.379s6.425,14.48,14.379,14.48s14.481-6.424,14.481-14.379
		C69.591,31.918,63.166,25.392,55.211,25.392L55.211,25.392z M68.367,111.562c0.917,18.968,1.631,37.119,2.141,56.087
		c0.204,3.468-2.447,6.526-5.914,6.935c-3.672,0.306-6.833-2.243-7.241-5.915L54.6,140.83v0.306l-2.753,27.533
		c-0.307,3.672-3.57,6.221-7.241,5.915c-3.467-0.306-6.017-3.365-5.914-6.73c-0.204-17.642-0.307-35.182-0.408-52.824
		c-3.161,4.691-10.3,3.468-11.932-1.836l-8.464-23.964c-1.121-2.855-0.204-6.221,2.447-7.955l22.537-18.968
		c2.447-2.04,7.547-3.263,10.504-3.263c4.487,0,8.565,1.734,11.319,4.385l18.662,7.444l17.336-14.175
		c3.161-2.753,7.342-2.346,9.688,0.612c2.244,2.753,1.836,6.934-0.918,9.178L91.107,84.334c-1.632,1.733-4.079,2.549-6.526,1.835
		l-16.112-4.283l-0.102,29.063C68.367,111.154,68.367,111.358,68.367,111.562L68.367,111.562z M38.283,85.456l-5.507,3.467
		l5.405,17.846L38.283,85.456L38.283,85.456z"/>
</g>
</svg>
