<?xml version="1.0" encoding="utf-8"?>
<!-- Generator: Adobe Illustrator 16.0.0, SVG Export Plug-In . SVG Version: 6.00 Build 0)  -->
<!DOCTYPE svg PUBLIC "-//W3C//DTD SVG 1.1//EN" "http://www.w3.org/Graphics/SVG/1.1/DTD/svg11.dtd">
<svg version="1.1" id="Layer_1" xmlns="http://www.w3.org/2000/svg" xmlns:xlink="http://www.w3.org/1999/xlink" x="0px" y="0px"
	 width="200px" height="200px" viewBox="0 0 200 200" enable-background="new 0 0 200 200" xml:space="preserve">
<path fill="#FFFFFF" d="M17.66,94.933l-6.182,1.649c-2.982,0.822-4.734,3.809-3.906,6.79l3.297,12.146
	c0.815,2.98,3.798,4.733,6.791,3.906l6.17-1.645L17.66,94.933L17.66,94.933z M164.202,29.894c2.58-4.527,9.468-0.615,6.899,3.912
	l-11.122,19.246c-2.567,4.526-9.468,0.511-6.889-3.913L164.202,29.894L164.202,29.894z M187.664,55.522
	c5.05-1.338,7.107,6.273,2.058,7.612l-21.406,5.762c-5.038,1.338-7.095-6.273-2.057-7.612L187.664,55.522L187.664,55.522z
	 M186.119,90.095c4.538,2.574,0.522,9.468-4.004,6.9l-19.252-11.116c-4.527-2.574-0.512-9.468,4.016-6.895L186.119,90.095
	L186.119,90.095z M137.648,64.68c4.733-1.235,9.675,1.545,10.916,6.279c1.229,4.734-1.546,9.668-6.279,10.904L137.648,64.68
	L137.648,64.68z M121.5,31.026C104.926,50.064,87.22,60.664,67.262,69l12.449,46.419c21.516-2.786,42.094-2.47,65.969,5.757
	C137.648,91.13,129.629,61.078,121.5,31.026L121.5,31.026z M59.961,71.987c-11.635,4.527-23.986,8.543-37.36,13.277l10.283,38.491
	c3.919-0.73,7.618-1.447,11.329-2.165l3.7,9.261l9.054,5.451l7.715,35.814l20.591-7.813
	C76.632,133.431,68.187,102.861,59.961,71.987L59.961,71.987z"/>
</svg>
