<?xml version="1.0" encoding="utf-8"?>
<!-- Generator: Adobe Illustrator 16.0.0, SVG Export Plug-In . SVG Version: 6.00 Build 0)  -->
<!DOCTYPE svg PUBLIC "-//W3C//DTD SVG 1.1//EN" "http://www.w3.org/Graphics/SVG/1.1/DTD/svg11.dtd">
<svg version="1.1" id="Layer_1" xmlns="http://www.w3.org/2000/svg" xmlns:xlink="http://www.w3.org/1999/xlink" x="0px" y="0px"
	 width="200px" height="200px" viewBox="0 0 200 200" enable-background="new 0 0 200 200" xml:space="preserve">
<g>
	<path fill="#FFFFFF" d="M159.027,125.427V77.971l-7.431,5.202v42.254h-4.884V86.676l-7.432,5.202v33.656h-4.884V91.348
		l-7.432-11.359v45.65h-4.883V72.45l-7.433-11.359v64.443h-4.884V60.666l-7.431,10.828v54.04h-4.884V78.82l-7.431,10.829v35.885
		h-4.884V96.868l-7.431,10.83v17.836h-4.884v-17.307l-7.432-5.627v22.934h-4.883V98.886l-7.433-5.628v32.276h-4.883V95.7
		l-7.432,9.767v20.172h-4.883v-13.695v-8.068c4.247-5.521,8.493-11.147,12.634-16.668c0.955-1.274,2.441-1.593,3.715-0.637
		c3.716,2.973,8.6,6.369,12.316,9.343l10.191,7.644c11.785-17.305,23.568-34.61,35.353-51.915c1.062-1.698,3.291-1.698,4.353,0
		l23.145,35.565c8.812-6.157,17.622-12.315,26.434-18.473v5.839l0,0v50.961h-4.989V125.427z"/>
	<path fill="#FFFFFF" d="M90.233,144.005h19.534v19.11h21.021c2.018,0,3.717,1.698,3.717,3.716s-1.699,3.716-3.717,3.716H69.212
		c-2.018,0-3.716-1.698-3.716-3.716s1.699-3.716,3.716-3.716h21.021V144.005L90.233,144.005z M26.216,29.453h147.568
		c2.018,0,3.716,1.699,3.716,3.716v102.236c0,2.019-1.698,3.717-3.716,3.717H26.216c-2.018,0-3.716-1.698-3.716-3.717V33.169
		C22.5,31.258,24.198,29.453,26.216,29.453L26.216,29.453z M170.068,131.69c0-31.638,0-63.168,0-94.806H29.931
		c0,31.638,0,63.168,0,94.806C76.644,131.69,123.355,131.69,170.068,131.69L170.068,131.69z"/>
</g>
</svg>
