<?xml version="1.0" encoding="utf-8"?>
<!-- Generator: Adobe Illustrator 16.0.0, SVG Export Plug-In . SVG Version: 6.00 Build 0)  -->
<!DOCTYPE svg PUBLIC "-//W3C//DTD SVG 1.1//EN" "http://www.w3.org/Graphics/SVG/1.1/DTD/svg11.dtd">
<svg version="1.1" id="Layer_1" xmlns="http://www.w3.org/2000/svg" xmlns:xlink="http://www.w3.org/1999/xlink" x="0px" y="0px"
	 width="200px" height="200px" viewBox="0 0 200 200" enable-background="new 0 0 200 200" xml:space="preserve">
<g>
	<path fill="#FFFFFF" d="M52.73,133.646c1.179-6.953,2.475-13.788,3.653-20.623c-4.125-4.243-8.249-8.839-12.492-13.789
		c-0.707,0.354-1.296,0.589-2.003,0.825c2.003,11.55,4.949,23.099,9.428,33.705C51.905,133.765,52.376,133.765,52.73,133.646
		L52.73,133.646z M47.191,74.133c6.481-4.714,13.081-9.075,19.798-13.199c2.239-10.017,4.714-19.681,7.424-28.873
		c-11.078,11.903-20.27,26.398-28.166,41.365C46.484,73.662,46.837,73.897,47.191,74.133L47.191,74.133z M73.825,56.81
		c8.367-4.832,16.852-9.31,25.573-13.317c-4.125-4.007-8.367-8.014-12.61-11.903c-2.121,1.414-4.596,2.003-6.953,2.003
		C77.714,41.136,75.71,48.796,73.825,56.81L73.825,56.81z M105.173,40.9c9.899-4.36,20.152-8.25,30.641-11.549
		c0-0.471-0.118-0.825-0.118-1.296c-14.613-2.357-29.227-3.771-43.958-3.653c-0.236,1.061-0.589,2.003-1.061,2.946
		C95.627,31.708,100.459,36.304,105.173,40.9L105.173,40.9z M137.581,34.89c-9.546,3.064-18.856,6.6-27.931,10.488
		c6.364,6.482,12.61,13.081,18.738,19.799c16.499-0.708,33.115,0,49.968,1.768c0.472-1.061,1.061-2.003,1.768-2.829
		c-5.774-8.838-12.256-17.206-19.798-24.512C152.901,45.26,142.177,43.021,137.581,34.89L137.581,34.89z M103.876,47.853
		c-10.959,4.95-21.566,10.488-31.819,16.734c-0.589,2.71-1.179,5.539-1.768,8.25c16.734-3.889,33.586-6.246,50.674-7.307
		C115.308,59.52,109.65,53.627,103.876,47.853L103.876,47.853z M65.104,68.948c-4.36,2.71-8.603,5.657-12.728,8.603
		c3.889-1.179,7.66-2.239,11.549-3.182C64.397,72.601,64.75,70.715,65.104,68.948L65.104,68.948z M177.296,72.719
		c-14.849-1.532-29.462-2.239-43.958-1.886c8.367,9.546,16.264,19.445,23.924,29.698c8.014-6.835,15.556-14.26,22.155-22.038
		C178.238,76.726,177.531,74.722,177.296,72.719L177.296,72.719z M125.796,71.187c-19.209,0.943-38.183,3.536-56.92,8.132
		l-6.128,31.819c6.6,6.6,13.199,12.139,19.799,16.734l-3.3,4.831c-5.893-4.124-11.903-8.956-17.795-14.612
		c-0.942,5.539-2.003,11.077-2.946,16.616c8.603,3.889,9.311,15.91,1.061,20.741c-5.539,3.182-12.728,1.296-15.91-4.242
		c-2.829-4.95-1.65-11.195,2.593-14.731c-4.714-11.313-7.896-23.216-10.017-35.472c-5.067-0.236-9.899-2.947-12.61-7.661
		c-6.835-11.903,4.243-26.044,17.324-22.509C49.077,55.277,58.74,40.192,70.29,27.818c-3.182-5.421-1.414-12.728,4.243-15.909
		c6.481-3.771,14.849-0.471,16.97,6.717c15.085-0.236,30.17,1.296,45.019,3.653c4.36-12.256,21.212-14.024,27.812-2.593
		c2.829,4.95,2.593,10.96-0.117,15.556c7.777,7.66,14.613,16.381,20.623,25.573c5.304-2.004,11.313,0.118,14.26,5.067
		c3.889,6.717,0.236,15.202-7.188,17.088c0.589,14.849-0.59,29.462-3.889,43.84c10.724,5.421,11.313,20.859,0.707,26.987
		c-7.308,4.242-16.735,1.768-20.978-5.657c-3.653-6.246-2.356-14.023,2.711-18.855c-4.597-6.953-9.311-13.788-14.143-20.506
		c-3.535,2.946-7.306,5.774-11.313,8.721l-3.417-4.714c3.889-2.946,7.66-5.774,11.313-8.721
		C144.298,92.871,135.342,81.793,125.796,71.187L125.796,71.187z M62.629,80.732c-3.536,0.943-6.953,1.886-10.489,2.946
		c0.589,4.243-0.825,8.603-3.653,11.903c3.064,3.653,6.128,7.071,9.192,10.371C59.33,97.467,60.979,89.1,62.629,80.732
		L62.629,80.732z M160.797,105.245c5.067,6.835,9.899,13.906,14.613,21.095c2.239-0.942,4.714-1.179,7.07-1.061
		c3.183-13.906,4.243-28.048,3.654-42.308c-0.825-0.236-1.532-0.472-2.239-0.825C177.061,90.396,169.164,98.056,160.797,105.245
		L160.797,105.245z"/>
	<path fill="#FFFFFF" d="M114.836,93.225c-10.842,0-19.681,8.839-19.681,19.681s8.839,19.681,19.681,19.681
		c10.843,0,19.681-8.839,19.681-19.681S125.679,93.225,114.836,93.225L114.836,93.225z M139.113,151.678l6.717,38.183
		c-20.623,0-41.129,0-61.752,0l6.717-38.183c2.122-10.371,14.613-14.967,24.159-14.967S136.992,141.307,139.113,151.678
		L139.113,151.678z"/>
</g>
<g>
	<path fill="#FFFFFF" d="M46.176,130.933c1.087-6.411,2.282-12.713,3.368-19.015c-3.803-3.913-7.605-8.15-11.517-12.713
		c-0.652,0.327-1.195,0.544-1.847,0.761c1.847,10.648,4.562,21.296,8.692,31.076C45.417,131.041,45.851,131.041,46.176,130.933
		L46.176,130.933z M41.07,76.061c5.977-4.347,12.062-8.367,18.255-12.17c2.063-9.235,4.346-18.146,6.845-26.621
		C55.955,48.244,47.48,61.609,40.2,75.409C40.418,75.626,40.744,75.844,41.07,76.061L41.07,76.061z M65.626,60.088
		c7.714-4.455,15.539-8.583,23.579-12.278c-3.803-3.695-7.715-7.389-11.627-10.975c-1.955,1.304-4.238,1.847-6.41,1.847
		C69.212,45.636,67.366,52.7,65.626,60.088L65.626,60.088z M94.53,45.419c9.128-4.021,18.582-7.606,28.251-10.649
		c0-0.435-0.108-0.761-0.108-1.195c-13.474-2.173-26.948-3.477-40.531-3.368c-0.217,0.978-0.544,1.847-0.977,2.716
		C85.728,36.943,90.183,41.182,94.53,45.419L94.53,45.419z M124.411,39.877c-8.802,2.825-17.387,6.085-25.753,9.67
		c5.869,5.976,11.627,12.061,17.278,18.255c15.213-0.653,30.533,0,46.07,1.63c0.436-0.978,0.979-1.848,1.63-2.608
		c-5.324-8.149-11.299-15.863-18.253-22.6C138.537,49.439,128.648,47.375,124.411,39.877L124.411,39.877z M93.334,51.83
		c-10.106,4.564-19.884,9.67-29.339,15.43c-0.542,2.5-1.085,5.106-1.629,7.605c15.429-3.584,30.968-5.758,46.723-6.736
		C103.875,62.586,98.658,57.154,93.334,51.83L93.334,51.83z M57.585,71.28c-4.021,2.499-7.932,5.215-11.734,7.932
		c3.585-1.087,7.062-2.064,10.647-2.935C56.933,74.648,57.258,72.909,57.585,71.28L57.585,71.28z M161.029,74.756
		c-13.691-1.412-27.165-2.064-40.531-1.738c7.716,8.801,14.996,17.929,22.059,27.382c7.39-6.302,14.343-13.148,20.428-20.319
		C161.897,78.451,161.245,76.604,161.029,74.756L161.029,74.756z M113.545,73.344c-17.711,0.87-35.206,3.26-52.482,7.497
		l-5.651,29.339c6.085,6.085,12.17,11.191,18.255,15.429l-3.042,4.455c-5.434-3.804-10.975-8.258-16.407-13.474
		c-0.869,5.107-1.848,10.213-2.718,15.32c7.934,3.585,8.585,14.67,0.979,19.124c-5.106,2.934-11.734,1.194-14.668-3.912
		c-2.608-4.563-1.521-10.322,2.39-13.582c-4.346-10.432-7.28-21.405-9.235-32.706c-4.673-0.218-9.128-2.715-11.627-7.062
		C13.036,82.797,23.25,69.759,35.31,73.018c7.498-14.343,16.407-28.251,27.057-39.661c-2.934-4.998-1.304-11.734,3.911-14.668
		c5.977-3.478,13.691-0.435,15.647,6.193c13.908-0.217,27.817,1.195,41.508,3.369c4.021-11.301,19.557-12.93,25.642-2.39
		c2.608,4.563,2.391,10.105-0.107,14.343c7.171,7.063,13.474,15.103,19.015,23.58c4.89-1.848,10.431,0.107,13.148,4.671
		c3.585,6.194,0.217,14.017-6.628,15.755c0.543,13.691-0.545,27.164-3.586,40.42c9.887,4.999,10.431,19.233,0.651,24.883
		c-6.737,3.912-15.43,1.63-19.342-5.215c-3.367-5.76-2.172-12.93,2.5-17.386c-4.237-6.41-8.585-12.713-13.04-18.907
		c-3.259,2.718-6.735,5.324-10.431,8.041l-3.15-4.347c3.586-2.716,7.062-5.323,10.432-8.04
		C130.604,93.337,122.346,83.124,113.545,73.344L113.545,73.344z M55.303,82.146c-3.259,0.87-6.41,1.738-9.671,2.716
		c0.544,3.912-0.759,7.932-3.366,10.974c2.823,3.369,5.648,6.52,8.475,9.562C52.261,97.575,53.783,89.859,55.303,82.146
		L55.303,82.146z M145.816,104.746c4.673,6.302,9.128,12.822,13.474,19.45c2.064-0.87,4.346-1.088,6.52-0.979
		c2.935-12.822,3.911-25.861,3.368-39.008c-0.76-0.218-1.412-0.436-2.063-0.761C160.812,91.056,153.531,98.119,145.816,104.746
		L145.816,104.746z"/>
	<path fill="#FFFFFF" d="M103.439,93.664c-9.997,0-18.147,8.148-18.147,18.145c0,9.997,8.15,18.146,18.147,18.146
		c9.998,0,18.146-8.148,18.146-18.146C121.586,101.812,113.438,93.664,103.439,93.664L103.439,93.664z M125.824,147.558
		l6.192,35.205c-19.015,0-37.921,0-56.936,0l6.192-35.205c1.955-9.562,13.474-13.8,22.275-13.8
		C112.351,133.758,123.868,137.995,125.824,147.558L125.824,147.558z"/>
</g>
</svg>
